<?xml version="1.0" encoding="UTF-8"?>
<svg version="1.1" xmlns="http://www.w3.org/2000/svg" width="619" height="514">
<path d="M0 0 C204.27 0 408.54 0 619 0 C619 169.62 619 339.24 619 514 C414.73 514 210.46 514 0 514 C0 344.38 0 174.76 0 0 Z " fill="#FDFDFD" transform="translate(0,0)"/>
<path d="M0 0 C-1.49999293 7.3230424 -3.57180559 14.37213406 -5.8125 21.5 C-6.53464237 23.82136953 -7.25599668 26.14298437 -7.9765625 28.46484375 C-8.32493164 29.58616699 -8.67330078 30.70749023 -9.03222656 31.86279297 C-10.66852532 37.16714186 -12.23005281 42.49183611 -13.78222656 47.82128906 C-16.92958757 58.62671422 -20.11960974 69.41920498 -23.33984375 80.203125 C-23.63213364 81.18220322 -23.92442352 82.16128143 -24.22557068 83.17002869 C-25.42983604 87.20325398 -26.6343099 91.23641559 -27.84057617 95.26904297 C-31.28921956 106.80070752 -34.70329845 118.33950504 -37.97337341 129.92327881 C-40.16405723 137.66366552 -42.5507654 145.33801389 -45 153 C-47.30191925 150.69808075 -48.0056323 148.86415344 -49.21484375 145.84765625 C-49.8656189 144.23576416 -49.8656189 144.23576416 -50.52954102 142.59130859 C-50.99416748 141.42680176 -51.45879395 140.26229492 -51.9375 139.0625 C-52.67191595 137.24412204 -53.40633658 135.42574595 -54.14103699 133.60748291 C-55.95681368 129.10756707 -57.75984878 124.60254853 -59.55957031 120.09619141 C-60.57164914 117.56205608 -61.58694829 115.02925759 -62.60571289 112.49780273 C-63.56675455 110.10784174 -64.52180713 107.71546254 -65.47045898 105.32055664 C-65.90430908 104.24281982 -66.33815918 103.16508301 -66.78515625 102.0546875 C-67.16551025 101.10062012 -67.54586426 100.14655273 -67.93774414 99.16357422 C-68.80494329 96.84511898 -68.80494329 96.84511898 -71 96 C-71.22300781 96.53109375 -71.44601562 97.0621875 -71.67578125 97.609375 C-73.45669858 100.82448239 -75.7936285 103.48429223 -78.1875 106.25 C-78.68507813 106.83064209 -79.18265625 107.41128418 -79.6953125 108.00952148 C-81.1261392 109.67657395 -82.56243672 111.33875715 -84 113 C-84.93779297 114.09248047 -84.93779297 114.09248047 -85.89453125 115.20703125 C-90.63116661 120.68124487 -95.53723364 126.0032667 -100.44921875 131.31982422 C-101.49250847 132.45016425 -102.53414813 133.58202927 -103.57421875 134.71533203 C-110.68810098 142.46438231 -117.94911077 150.04883962 -125.375 157.5 C-126.11177979 158.24137207 -126.84855957 158.98274414 -127.60766602 159.74658203 C-132.24329526 164.36914728 -137.04131051 168.72857228 -142 173 C-143.56611473 174.41266958 -145.1291647 175.82875344 -146.6875 177.25 C-161.45837215 190.55952254 -176.90895624 203.32101663 -193 215 C-193.59264648 215.43070801 -194.18529297 215.86141602 -194.79589844 216.30517578 C-237.968353 247.55622079 -284.01576096 273.06929569 -335 289 C-335.68304199 289.21736816 -336.36608398 289.43473633 -337.06982422 289.65869141 C-344.30506181 291.94705459 -351.63853829 293.6472014 -359.0625 295.1875 C-359.85366211 295.35475586 -360.64482422 295.52201172 -361.45996094 295.69433594 C-373.88586347 298.15918777 -386.56199176 298.27117874 -399.1875 298.3125 C-400.34428757 298.31642761 -400.34428757 298.31642761 -401.52444458 298.32043457 C-413.16881836 298.32466367 -423.84269252 297.57430985 -435 294 C-436.56814453 293.566875 -436.56814453 293.566875 -438.16796875 293.125 C-453.38240452 288.62297409 -467.1995322 280.67618141 -478 269 C-478.54140625 268.46375 -479.0828125 267.9275 -479.640625 267.375 C-489.81536742 256.75787747 -493.43260659 243.29343543 -493.36352539 229.00097656 C-492.81677471 205.11890667 -477.7460879 186.49036385 -462 170 C-461.24074219 169.19949219 -460.48148438 168.39898437 -459.69921875 167.57421875 C-456.37219418 164.14694485 -453.32541717 161.16270859 -449 159 C-450.64508033 162.49999233 -452.671842 165.67930267 -454.75 168.9375 C-464.34043757 184.30362393 -471.94649357 202.04864979 -468.31640625 220.46875 C-464.44360752 235.25287794 -457.24464586 245.35250994 -444.21875 253.296875 C-440.57447845 255.22515461 -436.90653338 256.83084497 -433.0625 258.3125 C-432.13352905 258.67613647 -432.13352905 258.67613647 -431.18579102 259.04711914 C-392.96927335 272.94448093 -347.3189396 256.6733715 -312 242 C-311.10345703 241.62762207 -310.20691406 241.25524414 -309.28320312 240.87158203 C-295.70034343 235.15207734 -282.80721048 228.2731705 -270 221 C-269.22495117 220.56010742 -268.44990234 220.12021484 -267.65136719 219.66699219 C-243.85269927 206.07821433 -221.30633686 190.51643114 -199.85644531 173.47460938 C-198.29207664 172.23200196 -196.72101058 170.99783295 -195.1484375 169.765625 C-184.24637351 161.1718156 -173.85655494 151.98084413 -163.68481445 142.54125977 C-162.39043481 141.3571678 -161.0846913 140.18548871 -159.77416992 139.01928711 C-153.58797742 133.51298904 -147.65455036 127.80649295 -141.8125 121.9375 C-140.96236328 121.09123047 -140.11222656 120.24496094 -139.23632812 119.37304688 C-134.83225224 114.96216932 -130.57398834 110.48604019 -126.51245117 105.75756836 C-123.76300112 102.56252544 -120.87607837 99.49002187 -118.015625 96.39453125 C-116.03716879 94.04415595 -114.50128584 91.67475926 -113 89 C-114.09779785 88.88068115 -115.1955957 88.7613623 -116.32666016 88.63842773 C-121.54047222 87.98414572 -126.64040261 86.89516851 -131.7734375 85.78515625 C-132.77839264 85.5693541 -133.78334778 85.35355194 -134.8187561 85.13121033 C-136.92856405 84.67665838 -139.0379645 84.22021133 -141.14697266 83.76196289 C-144.38407985 83.06053254 -147.6235627 82.37089553 -150.86328125 81.68164062 C-152.91682209 81.2376975 -154.9702131 80.79306061 -157.0234375 80.34765625 C-157.99421234 80.14237808 -158.96498718 79.93709991 -159.96517944 79.7256012 C-161.30765244 79.43035805 -161.30765244 79.43035805 -162.67724609 79.12915039 C-163.46586029 78.95895889 -164.25447449 78.7887674 -165.06698608 78.61341858 C-167 78 -167 78 -169 76 C-151.16959091 67.83993716 -133.33489034 59.68965173 -115.48016357 51.58291626 C-107.60081138 48.00508705 -99.72474449 44.42025836 -91.85546875 40.8203125 C-91.08780182 40.46914368 -90.32013489 40.11797485 -89.52920532 39.75616455 C-85.86012858 38.07743748 -82.19148663 36.39776804 -78.5234375 34.71679688 C-67.70440885 29.76177923 -56.85550008 24.87451566 -46 20 C-39.8733799 17.24753372 -33.74710305 14.49430394 -27.62109375 11.74047852 C-25.84517976 10.9423428 -24.06913401 10.1445002 -22.29296875 9.34692383 C-19.67412901 8.17086202 -17.05576839 6.9937394 -14.4375 5.81640625 C-13.25015259 5.2836483 -13.25015259 5.2836483 -12.03881836 4.74012756 C-10.93485718 4.24336769 -10.93485718 4.24336769 -9.80859375 3.73657227 C-9.16720459 3.44839127 -8.52581543 3.16021027 -7.86499023 2.86329651 C-6.52193135 2.24159993 -5.19753237 1.57901162 -3.88696289 0.89146423 C-2 0 -2 0 0 0 Z " fill="#139A25" transform="translate(589,77)"/>
<path d="M0 0 C0 4.0366196 -2.01386766 5.93147176 -4.4375 8.9375 C-5.36540254 10.11263486 -6.29246923 11.28843013 -7.21875 12.46484375 C-7.68796875 13.05765137 -8.1571875 13.65045898 -8.640625 14.26123047 C-10.62656513 16.80143622 -12.52797588 19.4020786 -14.4375 22 C-19.35085993 28.57433648 -24.63568501 34.79342214 -30 41 C-30.639375 41.74121094 -31.27875 42.48242188 -31.9375 43.24609375 C-33.61365573 45.17444884 -35.30279056 47.09015612 -37 49 C-37.63808594 49.71929687 -38.27617187 50.43859375 -38.93359375 51.1796875 C-62.36325038 77.40370685 -62.36325038 77.40370685 -74.7265625 88.0078125 C-77.58104781 90.50916561 -80.34920977 93.09978708 -83.125 95.6875 C-93.38683957 105.21742234 -104.10673407 114.20223255 -115 123 C-116.15822266 123.94552734 -116.15822266 123.94552734 -117.33984375 124.91015625 C-125.05762048 131.1639953 -133.01602073 137.09275749 -141 143 C-141.69625488 143.51723633 -142.39250977 144.03447266 -143.10986328 144.56738281 C-155.72810768 153.91660665 -168.75790427 162.5623388 -182 171 C-182.89654297 171.57282715 -183.79308594 172.1456543 -184.71679688 172.73583984 C-255.15508793 217.57322208 -255.15508793 217.57322208 -285 214 C-287.96557829 213.25965112 -290.25478729 212.37260635 -293 211 C-293.14695312 211.61746094 -293.29390625 212.23492187 -293.4453125 212.87109375 C-296.00147912 222.52282635 -299.96592397 229.27031086 -308.4609375 234.7109375 C-315.13916458 238.10142202 -320.86378383 239.55828516 -328.375 239.5 C-329.20990967 239.49572998 -330.04481934 239.49145996 -330.9050293 239.48706055 C-337.56464533 239.30338729 -342.56022449 237.9979073 -348 234 C-348.60070312 233.56945312 -349.20140625 233.13890625 -349.8203125 232.6953125 C-352.67379971 230.47593356 -355.09157614 228.07468288 -357 225 C-357 224.34 -357 223.68 -357 223 C-357.64324219 223.433125 -358.28648437 223.86625 -358.94921875 224.3125 C-367.27578142 229.44384818 -374.13079114 230.43357402 -383.6953125 228.4375 C-390.95581252 226.07044043 -396.38833598 220.97742606 -401 215 C-403.05825343 210.07534455 -403.18077117 206.24236386 -403 201 C-403.60585938 201.04640625 -404.21171875 201.0928125 -404.8359375 201.140625 C-415.23568602 201.58861417 -424.06125408 197.63707767 -432 191 C-440.5862164 182.45953608 -444.31259374 173.0697581 -444.5625 161 C-444.42174276 149.66971216 -440.28035794 141.25580735 -432.453125 133.1953125 C-425.67455942 127.12914394 -419.00705013 124.11150831 -410 123 C-410.32097656 121.88753906 -410.64195312 120.77507812 -410.97265625 119.62890625 C-415.11912489 102.91448748 -411.693908 86.57896168 -403.0625 72 C-400.02428757 67.32449662 -396.79558164 63.08025026 -393 59 C-392 61 -392 61 -392.9375 64.875 C-396.84939122 83.30911755 -393.51267278 100.94014353 -384 117 C-374.91231941 130.40738526 -358.56062469 137.25590035 -344 143 C-344 143.33 -344 143.66 -344 144 C-344.83402344 144.10957031 -345.66804688 144.21914063 -346.52734375 144.33203125 C-359.3218683 146.13469622 -371.92278973 149.19061395 -380.4375 159.8125 C-386.15580387 168.46454237 -388.17049513 176.61525836 -387 187 C-386.06104064 189.78903917 -386.06104064 189.78903917 -385 192 C-384.79246094 191.31035156 -384.58492187 190.62070312 -384.37109375 189.91015625 C-380.49824954 178.09717119 -373.56928616 169.53984126 -362.5078125 163.6796875 C-352.75038258 159.53929439 -340.96073599 159.39352663 -331 163 C-326.45974991 165.14487677 -322.41809441 167.50149019 -318.6875 170.875 C-316.31718291 173.25210283 -316.31718291 173.25210283 -314.0859375 172.8203125 C-311.66406435 171.86789047 -309.96610074 170.62600753 -307.9375 169 C-301.70957791 164.02722536 -294.70029975 164.2336751 -287.02539062 164.71728516 C-281.16361186 165.53550355 -275.86425212 168.87152317 -272.015625 173.265625 C-271.35046875 173.83796875 -270.6853125 174.4103125 -270 175 C-249.91855724 172.56804363 -228.07568398 160.39085677 -210 152 C-209.05543945 151.566875 -208.11087891 151.13375 -207.13769531 150.6875 C-144.25041 121.82564084 -85.31984725 80.60732392 -34.69335938 33.54956055 C-33.41872733 32.38316932 -32.1313357 31.2306985 -30.83789062 30.08520508 C-23.92104354 23.95002806 -17.38192612 17.49895918 -10.875 10.9375 C-9.81273794 9.87020583 -8.75023917 8.80314722 -7.6875 7.73632812 C-5.12227641 5.16025075 -2.5602322 2.58103929 0 0 Z " fill="#139A25" transform="translate(475,241)"/>
<path d="M0 0 C5.9196917 0.49823857 11.3782526 1.48514146 17.0625 3.1875 C35.30126784 8.42580349 53.73103454 12.66761388 72.296875 16.5703125 C77.16440477 17.59729273 82.00957924 18.69145711 86.84936523 19.84106445 C158.73991132 36.81821323 233.24494565 44.592253 307 46 C288.09330504 58.60446331 254.75526123 58.54372093 232.76367188 59.83691406 C230.25223172 59.98511565 227.7437716 60.1569974 225.234375 60.3359375 C166.95195832 64.20078639 104.59509476 58.49575168 48 44 C48.12004395 44.57516357 48.24008789 45.15032715 48.36376953 45.74291992 C48.53505371 46.56381104 48.70633789 47.38470215 48.8828125 48.23046875 C49.07738037 49.1627832 49.27194824 50.09509766 49.47241211 51.05566406 C49.91692392 53.18892162 50.36040492 55.32239417 50.80297852 57.45605469 C52.00262733 63.23651892 53.21475437 69.01369285 54.45703125 74.78515625 C60.41040123 102.62812348 64.85717196 130.5451828 68.25 158.8125 C68.37487793 159.84901703 68.49975586 160.88553406 68.62841797 161.95346069 C69.46677736 168.96407414 70.25050119 175.97936614 71 183 C71.15257263 184.38751968 71.15257263 184.38751968 71.30822754 185.80307007 C72.98117344 201.29802102 73.31147666 216.69283097 73.26074219 232.27124023 C73.24998395 236.19335273 73.26072643 240.11501029 73.2734375 244.03710938 C73.29137716 277.5444405 73.29137716 277.5444405 70 290 C67.69 290.33 65.38 290.66 63 291 C62.91866821 289.11293335 62.91866821 289.11293335 62.83569336 287.18774414 C60.92993747 244.55877993 55.838328 202.75282183 47 161 C46.5984906 159.04566895 46.19742832 157.09124598 45.796875 155.13671875 C40.66811589 130.5011225 34.40262703 106.04750687 27 82 C26.70026276 81.02374664 26.70026276 81.02374664 26.39447021 80.027771 C18.81293913 55.35307178 10.6462184 30.89520853 2.20825195 6.5012207 C1.46164959 4.3377484 0.72374218 2.17122655 0 0 Z " fill="#373E45" transform="translate(143,36)"/>
<path d="M0 0 C3.34405822 0.23563829 6.68783529 0.4741099 10.03125 0.71875 C12.59274047 0.90027295 15.15526693 1.06795688 17.71875 1.21875 C18.8634375 1.2909375 20.008125 1.363125 21.1875 1.4375 C22.75564453 1.52837891 22.75564453 1.52837891 24.35546875 1.62109375 C27 2 27 2 30 4 C30.86534119 5.74751282 30.86534119 5.74751282 31.56225586 7.8762207 C31.96298561 9.0743615 31.96298561 9.0743615 32.37181091 10.29670715 C32.78911217 11.59809883 32.78911217 11.59809883 33.21484375 12.92578125 C33.51185684 13.82435349 33.80886993 14.72292572 34.11488342 15.64872742 C35.06562366 18.53351765 36.00156702 21.42287611 36.9375 24.3125 C37.56351829 26.2171044 38.19046143 28.12140507 38.81835938 30.02539062 C41.98391999 39.6518698 45.07597343 49.29717635 48 59 C48.2172876 59.71373779 48.4345752 60.42747559 48.65844727 61.1628418 C54.35349533 79.93611813 59.39444726 98.93139566 64 118 C64.23299805 118.96099609 64.23299805 118.96099609 64.47070312 119.94140625 C65.68193846 124.95307633 66.8467617 129.97470513 68 135 C68.18698456 135.81203888 68.37396912 136.62407776 68.56661987 137.46072388 C71.83523323 151.76067047 74.49819281 166.09545892 76.74023438 180.59082031 C77.2532182 183.89573333 77.7822788 187.19781357 78.3125 190.5 C80.18096348 202.33514698 81.63274433 214.01879942 82 226 C80.03941224 223.05911835 79.46108722 221.32301432 78.703125 217.94140625 C78.46972412 216.92570557 78.23632324 215.91000488 77.99584961 214.86352539 C77.74971924 213.77418701 77.50358887 212.68484863 77.25 211.5625 C74.97959829 201.79886138 72.37953471 192.22173784 69.41796875 182.6484375 C68.30502378 179.04638109 67.28473025 175.42998891 66.31225586 171.7878418 C52.41224583 119.8634882 30.69536893 70.52246253 8.99121094 21.49951172 C6.98237439 16.96104288 4.97509004 12.42192571 2.9765625 7.87890625 C2.67487152 7.19690659 2.37318054 6.51490692 2.06234741 5.8122406 C0 1.11472232 0 1.11472232 0 0 Z " fill="#373D44" transform="translate(112,69)"/>
<path d="M0 0 C9.57 0.33 19.14 0.66 29 1 C53.67680963 52.69879124 76.69207576 105.84000762 90.18798828 161.6875 C91.05066172 165.20666814 91.9566534 168.71269299 92.87109375 172.21875 C95.60174854 182.75037145 98.26758322 193.25142871 100 204 C100.1247168 204.76505859 100.24943359 205.53011719 100.37792969 206.31835938 C100.8957091 209.86277998 101.00128598 212.57454796 100 216 C99.60683594 214.81792969 99.21367187 213.63585937 98.80859375 212.41796875 C98.20587707 210.6119298 97.60299189 208.80594708 97 207 C96.46270264 205.38665771 96.46270264 205.38665771 95.91455078 203.74072266 C89.27023468 183.86765757 82.00422581 164.36419366 74 145 C73.55720703 143.9162207 73.11441406 142.83244141 72.65820312 141.71582031 C58.748449 107.69444424 42.75912672 74.21610288 24.36865234 42.37646484 C22.61755374 39.33593794 20.88118573 36.28707012 19.14453125 33.23828125 C16.38810034 28.40210982 13.63025424 23.56675884 10.8671875 18.734375 C10.29081543 17.72600586 9.71444336 16.71763672 9.12060547 15.67871094 C6.10103597 10.44052613 3.04649856 5.22256896 0 0 Z " fill="#363D43" transform="translate(83,102)"/>
<path d="M0 0 C5.30574338 -0.11686659 10.01658276 0.23777527 15.25 1.25 C24.86305203 2.98717016 34.54549213 4.05309097 44.25 5.125 C45.02009399 5.21108521 45.79018799 5.29717041 46.58361816 5.38586426 C51.71923081 5.95782261 56.85746263 6.49419856 62 7 C63.09030518 7.10965088 64.18061035 7.21930176 65.30395508 7.33227539 C77.5653755 8.38940841 89.89094093 8.19690431 102.1875 8.1875 C103.9940657 8.18759064 103.9940657 8.18759064 105.83712769 8.18768311 C126.43103362 8.17292623 146.69725884 7.8001205 167.05249023 4.39794922 C169.74888315 4.03390379 172.28431202 3.9254603 175 4 C153.72047501 25.27952499 96.07440292 25.17286726 67.91400146 25.27790833 C64.54674704 25.27758421 61.17971793 25.26520916 57.8125 25.25 C56.65576782 25.2478952 55.49903564 25.24579041 54.30725098 25.24362183 C6.14073753 25.14073753 6.14073753 25.14073753 3 22 C2.43087941 19.25170783 1.91497394 16.51432282 1.4375 13.75 C1.29892578 12.98558594 1.16035156 12.22117187 1.01757812 11.43359375 C0.34157544 7.5773814 -0.18089431 3.93248511 0 0 Z " fill="#363E45" transform="translate(221,107)"/>
<path d="M0 0 C1.44439453 0.16435547 1.44439453 0.16435547 2.91796875 0.33203125 C6.94305586 0.78694306 10.96938778 1.2300767 14.99609375 1.67041016 C17.06401672 1.89730353 19.13171358 2.12626414 21.19921875 2.35693359 C67.69377936 7.52074586 114.34087781 9.02519902 161 5 C157.44111005 8.55888995 152.23125282 9.35740953 147.5 10.8125 C146.34540283 11.16779785 145.19080566 11.5230957 144.0012207 11.88916016 C100.28689333 24.92681848 48.30601921 29.27790726 3 22 C1.3914971 20.3914971 1.66456199 18.53212353 1.46484375 16.30859375 C1.37783203 15.36435547 1.29082031 14.42011719 1.20117188 13.44726562 C1.11416016 12.45404297 1.02714844 11.46082031 0.9375 10.4375 C0.84662109 9.44041016 0.75574219 8.44332031 0.66210938 7.41601562 C0.43741186 4.94434298 0.21689649 2.47236744 0 0 Z " fill="#384047" transform="translate(227,145)"/>
<path d="M0 0 C10.06773627 0.72459832 20.07367331 1.73526446 30.09960938 2.89453125 C49.87515474 5.09551944 69.57319159 5.13080721 89.44036865 5.06866455 C93.12169817 5.05827665 96.80303493 5.05383442 100.484375 5.04882812 C107.65626929 5.03823073 114.82812851 5.02125449 122 5 C117.1637948 8.76361134 112.0714678 10.15697435 106.25 11.9375 C105.09491943 12.29086426 103.93983887 12.64422852 102.74975586 13.00830078 C91.29159387 16.39318757 79.82547814 18.42783899 68 20 C66.46744668 20.2265541 64.93489451 20.45311606 63.40234375 20.6796875 C53.2121842 22.066741 43.01695494 22.17860624 32.75 22.1875 C31.74525635 22.18913147 31.74525635 22.18913147 30.72021484 22.1907959 C21.09674013 22.18902471 11.59068595 21.71872646 2 21 C1.34 14.07 0.68 7.14 0 0 Z " fill="#394148" transform="translate(231,182)"/>
<path d="M0 0 C7.72307692 0 7.72307692 0 11.6875 0.875 C31.14096873 4.56045385 50.7259186 4.25353944 70.4319458 4.1373291 C74.34132685 4.11653616 78.25073536 4.10766535 82.16015625 4.09765625 C89.77351035 4.07647485 97.38673196 4.04253276 105 4 C77.03200924 22.64532717 32.10243583 22.48804379 0 22 C0 14.74 0 7.48 0 0 Z " fill="#373E45" transform="translate(235,219)"/>
<path d="M0 0 C0.99 0.495 0.99 0.495 2 1 C-11.18412973 18.09053854 -27.59201278 36.29393167 -50 40 C-59.38346814 40.73930355 -67.00584993 39.72905725 -74.4375 33.6875 C-77.74405283 30.82182088 -78.82293903 28.19364937 -80 24 C-79.34628418 24.01571045 -78.69256836 24.0314209 -78.01904297 24.04760742 C-59.78278626 24.51365585 -59.78278626 24.51365585 -42 21 C-40.82695312 20.64421875 -39.65390625 20.2884375 -38.4453125 19.921875 C-25.93043989 15.8064634 -9.33366869 9.33366869 0 0 Z " fill="#159929" transform="translate(267,442)"/>
<path d="M0 0 C1.32 0.33 2.64 0.66 4 1 C4.33970765 3.49927769 4.67188032 5.99919595 5 8.5 C5.09539062 9.19609375 5.19078125 9.8921875 5.2890625 10.609375 C5.9161622 15.44700129 6.08789528 20.12181196 6 25 C3.5871957 21.38079355 2.82678754 17.79876463 1.875 13.625 C1.69324219 12.86960937 1.51148438 12.11421875 1.32421875 11.3359375 C0.42936046 7.48737403 -0.2378791 3.98051023 0 0 Z " fill="#4C5258" transform="translate(188,270)"/>
<path d="M0 0 C0 4.1975506 -2.30613997 6.3557208 -4.8125 9.5 C-5.26431641 10.08136719 -5.71613281 10.66273438 -6.18164062 11.26171875 C-8.32025623 13.99040494 -10.45841894 16.63573855 -13 19 C-14.32 18.34 -15.64 17.68 -17 17 C-11.39 11.39 -5.78 5.78 0 0 Z " fill="#31A244" transform="translate(475,241)"/>
<path d="M0 0 C1.0209375 0.2165625 1.0209375 0.2165625 2.0625 0.4375 C0.6687718 4.87208973 -1.54332235 7.31128374 -4.9375 10.4375 C-5.5975 9.7775 -6.2575 9.1175 -6.9375 8.4375 C-7.9275 8.1075 -8.9175 7.7775 -9.9375 7.4375 C-3.86310175 0.57535558 -3.86310175 0.57535558 0 0 Z " fill="#19932C" transform="translate(459.9375,258.5625)"/>
<path d="M0 0 C-3.24191544 2.54322677 -5.96416376 3.99104094 -10 5 C-12.375 4.625 -12.375 4.625 -14 4 C-13.01 4 -12.02 4 -11 4 C-11 3.34 -11 2.68 -11 2 C-14.96 2 -18.92 2 -23 2 C-23 1.67 -23 1.34 -23 1 C-15.307359 0.15199233 -7.73708326 -0.12152487 0 0 Z " fill="#2E363E" transform="translate(353,187)"/>
<path d="M0 0 C0.33 0 0.66 0 1 0 C1.5339744 3.08120684 2.04985551 6.16517859 2.5625 9.25 C2.71396484 10.12269531 2.86542969 10.99539063 3.02148438 11.89453125 C3.16005859 12.73886719 3.29863281 13.58320313 3.44140625 14.453125 C3.57232666 15.22817383 3.70324707 16.00322266 3.83813477 16.80175781 C4.00822774 19.11173847 3.68559092 20.80085213 3 23 C1.96237048 20.01162698 0.96938818 17.0111913 0 14 C-0.23589844 13.28457031 -0.47179687 12.56914062 -0.71484375 11.83203125 C-2.08374196 7.20640789 -1.97796329 4.39547398 0 0 Z " fill="#4A5157" transform="translate(180,295)"/>
<path d="M0 0 C0 3.54538207 -0.8268882 4.70225088 -2.75 7.625 C-3.26046875 8.42164063 -3.7709375 9.21828125 -4.296875 10.0390625 C-6.22355896 12.25740045 -7.12891372 12.67219881 -10 13 C-10.99 13 -11.98 13 -13 13 C-9.0580583 8.11950075 -4.88049925 3.9419417 0 0 Z " fill="#1E9B32" transform="translate(139,236)"/>
<path d="M0 0 C-1.74692795 0.67467562 -3.49768525 1.33944156 -5.25 2 C-6.22453125 2.37125 -7.1990625 2.7425 -8.203125 3.125 C-11 4 -11 4 -15 4 C-15 3.34 -15 2.68 -15 2 C-17.97 1.505 -17.97 1.505 -21 1 C-21 0.67 -21 0.34 -21 0 C-18.25034772 -0.19511725 -15.50057868 -0.38136433 -12.75 -0.5625 C-11.97269531 -0.61857422 -11.19539063 -0.67464844 -10.39453125 -0.73242188 C-9.64042969 -0.78076172 -8.88632812 -0.82910156 -8.109375 -0.87890625 C-7.41811523 -0.9260376 -6.72685547 -0.97316895 -6.01464844 -1.02172852 C-3.86382928 -0.99853136 -2.05915129 -0.5995764 0 0 Z " fill="#545B62" transform="translate(388,151)"/>
<path d="M0 0 C0.66 0.33 1.32 0.66 2 1 C2.4140625 3.72265625 2.4140625 3.72265625 2.625 7.0625 C2.69976562 8.16722656 2.77453125 9.27195312 2.8515625 10.41015625 C2.90054688 11.26480469 2.94953125 12.11945313 3 13 C1.68 13.33 0.36 13.66 -1 14 C-2.33500455 8.65998179 -1.512545 5.16044765 0 0 Z " fill="#3F454D" transform="translate(188,257)"/>
<path d="M0 0 C0.66 0.33 1.32 0.66 2 1 C-0.31 3.97 -2.62 6.94 -5 10 C-5.66 9.67 -6.32 9.34 -7 9 C-7.625 6.9375 -7.625 6.9375 -8 5 C-6.71475739 4.13619741 -5.42157581 3.28419631 -4.125 2.4375 C-3.04605469 1.72400391 -3.04605469 1.72400391 -1.9453125 0.99609375 C-1.30335938 0.66738281 -0.66140625 0.33867187 0 0 Z " fill="#30A445" transform="translate(267,442)"/>
<path d="M0 0 C3.96 0 7.92 0 12 0 C9.60236815 2.39763185 8.66726502 2.34280586 5.375 2.625 C4.55773437 2.69976562 3.74046875 2.77453125 2.8984375 2.8515625 C2.27195312 2.90054688 1.64546875 2.94953125 1 3 C0.67 2.01 0.34 1.02 0 0 Z " fill="#2C323B" transform="translate(433,83)"/>
<path d="M0 0 C-2.2551922 2.2551922 -4.0047587 2.97723468 -7 4 C-7.99 4 -8.98 4 -10 4 C-10.33 3.01 -10.66 2.02 -11 1 C-7.27569643 0.30710631 -3.78916254 -0.11144596 0 0 Z " fill="#485159" transform="translate(396,111)"/>
<path d="M0 0 C3.64734979 0.22330713 5.38372835 0.38372835 8 3 C4.37 3 0.74 3 -3 3 C-2.01 2.01 -1.02 1.02 0 0 Z " fill="#158F29" transform="translate(123,382)"/>
<path d="M0 0 C2.97 0.33 5.94 0.66 9 1 C7.02 1.99 7.02 1.99 5 3 C3.29078411 4.5412312 3.29078411 4.5412312 2 6 C1.34 4.02 0.68 2.04 0 0 Z " fill="#4F545C" transform="translate(143,36)"/>
<path d="M0 0 C0.33 0.99 0.66 1.98 1 3 C-1.3125 5.0625 -1.3125 5.0625 -4 7 C-4.99 6.67 -5.98 6.34 -7 6 C-4.69 4.02 -2.38 2.04 0 0 Z " fill="#1C9D2F" transform="translate(107,408)"/>
<path d="M0 0 C-1.26607607 0.53229326 -2.53810412 1.05044544 -3.8125 1.5625 C-4.52019531 1.85253906 -5.22789062 2.14257812 -5.95703125 2.44140625 C-8 3 -8 3 -11 2 C-7.62346206 -1.37653794 -4.38842265 -1.24183024 0 0 Z " fill="#30383F" transform="translate(388,151)"/>
<path d="M0 0 C0 3.99904969 -1.72586967 5.80200422 -4 9 C-4.66 7.68 -5.32 6.36 -6 5 C-4.02 3.35 -2.04 1.7 0 0 Z " fill="#3EAA4F" transform="translate(139,236)"/>
<path d="M0 0 C0 3.90838866 -1.50567876 5.11594107 -4 8 C-4.99 7.67 -5.98 7.34 -7 7 C-4.69 4.69 -2.38 2.38 0 0 Z " fill="#5AB166" transform="translate(475,241)"/>
</svg>
